<?xml version="1.0" encoding="utf-8"?>
<!-- Generator: Adobe Illustrator 24.3.0, SVG Export Plug-In . SVG Version: 6.00 Build 0)  -->
<svg version="1.0" id="katman_1" xmlns="http://www.w3.org/2000/svg" xmlns:xlink="http://www.w3.org/1999/xlink" x="0px" y="0px"
	 viewBox="0 0 841.89 595.28" style="enable-background:new 0 0 841.89 595.28;" xml:space="preserve">
<style type="text/css">
	.st0{fill:#37519F;}
	.st1{fill:url(#SVGID_1_);}
	.st2{fill:none;}
	.st3{fill:url(#SVGID_2_);}
	.st4{fill:#BC4995;}
	.st5{fill:url(#SVGID_3_);}
	.st6{fill:url(#SVGID_4_);}
	.st7{clip-path:url(#SVGID_6_);fill:#38519F;}
</style>
<g>
	<path class="st0" d="M410.06,330.25c0,0,82.25-72.84,39.56-250.48c0,0,9.11-3.58,25.38-5.97
		C475.14,73.8,547.24,270.09,410.06,330.25z M416.63,300.24c8.06-28.06,12.39-68.52,12.99-118.97c0.3-16.72,0-33.88-0.75-49.71
		c-17.02,3.13-40.75,35.83-51.8,82.7c-5.97,25.53-7.02,50.45-3.13,70.16c3.28,16.42,10,27.47,17.91,29.26
		C398.86,315.32,407.82,310.39,416.63,300.24L416.63,300.24z M357.96,208.44c6.57-27.76,17.76-52.69,31.35-70.61
		c12.09-15.82,25.38-24.78,38.21-26.27c-0.6-8.96-1.49-17.17-2.39-24.18c-42.99,12.99-66.58,28.51-66.58,28.51
		s-1.64,34.33-1.49,54.19C357.22,183.96,357.52,196.65,357.96,208.44z M349.46,312.48c-12.09-13.73-22.54-33.44-29.41-55.68
		c-6.87-22.09-9.4-44.33-7.02-62.55c1.79-13.73,6.12-24.48,12.84-31.35c0.45-10,1.19-19.26,1.94-27.02l0.15-2.39
		c0,0-17.91,11.34-33.59,25.67c0,0-1.49,13.43-1.19,29.41c0.3,20.75,3.13,40.75,8.36,57.77c6.27,20,15.52,37.47,27.76,51.8
		c18.36,21.5,37.47,29.26,42.39,31.05C364.38,326.36,356.77,320.69,349.46,312.48L349.46,312.48z"/>
	
		<linearGradient id="SVGID_1_" gradientUnits="userSpaceOnUse" x1="372.4977" y1="496.4653" x2="432.89" y2="272.6389" gradientTransform="matrix(1 0 0 -1 3.051759e-05 596.7244)">
		<stop  offset="0" style="stop-color:#37519F;stop-opacity:0"/>
		<stop  offset="1" style="stop-color:#232249;stop-opacity:0.55"/>
	</linearGradient>
	<path class="st1" d="M410.06,330.25c0,0,82.25-72.84,39.56-250.48c0,0,9.11-3.58,25.38-5.97
		C475.14,73.8,547.24,270.09,410.06,330.25z M416.63,300.24c8.06-28.06,12.39-68.52,12.99-118.97c0.3-16.72,0-33.88-0.75-49.71
		c-17.02,3.13-40.75,35.83-51.8,82.7c-5.97,25.53-7.02,50.45-3.13,70.16c3.28,16.42,10,27.47,17.91,29.26
		C398.86,315.32,407.82,310.39,416.63,300.24L416.63,300.24z M357.96,208.44c6.57-27.76,17.76-52.69,31.35-70.61
		c12.09-15.82,25.38-24.78,38.21-26.27c-0.6-8.96-1.49-17.17-2.39-24.18c-42.99,12.99-66.58,28.51-66.58,28.51
		s-1.64,34.33-1.49,54.19C357.22,183.96,357.52,196.65,357.96,208.44z M349.46,312.48c-12.09-13.73-22.54-33.44-29.41-55.68
		c-6.87-22.09-9.4-44.33-7.02-62.55c1.79-13.73,6.12-24.48,12.84-31.35c0.45-10,1.19-19.26,1.94-27.02l0.15-2.39
		c0,0-17.91,11.34-33.59,25.67c0,0-1.49,13.43-1.19,29.41c0.3,20.75,3.13,40.75,8.36,57.77c6.27,20,15.52,37.47,27.76,51.8
		c18.36,21.5,37.47,29.26,42.39,31.05C364.38,326.36,356.77,320.69,349.46,312.48L349.46,312.48z"/>
	<path class="st2" d="M349.46,312.48c-12.09-13.73-22.54-33.44-29.41-55.68c-6.87-22.09-9.4-44.33-7.02-62.55
		c1.79-13.73,6.12-24.48,12.84-31.35c0.45-10,1.19-19.26,1.94-27.02l0.15-2.39c0,0-17.91,11.34-33.59,25.67
		c0,0-1.49,13.43-1.19,29.41c0.3,20.75,3.13,40.75,8.36,57.77c6.27,20,15.52,37.47,27.76,51.8c18.36,21.5,37.47,29.26,42.39,31.05
		C364.38,326.36,356.77,320.69,349.46,312.48z"/>
	
		<radialGradient id="SVGID_2_" cx="268.3038" cy="24.6562" r="25.433" gradientTransform="matrix(0.723 -0.6909 -0.3427 -0.3586 214.0412 320.2949)" gradientUnits="userSpaceOnUse">
		<stop  offset="0" style="stop-color:#F08067"/>
		<stop  offset="1" style="stop-color:#E73A1E"/>
	</radialGradient>
	<path class="st3" d="M401.1,322.78c-24.63-2.99-28.36-29.26-29.71-45.83c-1.64-20.3,1.64-51.2,8.36-72.84
		c3.73-13.29,8.51-25.23,13.88-35.38c5.37-10.9,12.54-22.69,22.24-34.33c13.58-16.27,32.39-15.38,43.29-3.28
		c-0.3-1.94-0.45-3.88-0.75-5.82c-5.37-6.87-12.09-11.34-19.7-13.14c-16.27-3.73-33.74,5.37-49.26,25.67
		c-14.03,18.21-25.23,43.74-31.8,71.95s-7.76,56.13-3.28,78.52c5.08,25.08,16.72,41.05,32.99,44.78c1.94,0.45,4.03,0.75,5.97,0.75
		c5.67,0,11.05-1.34,16.87-3.73c0.15-0.15,4.18-3.73,10-11.2C414.09,322.04,407.67,323.68,401.1,322.78L401.1,322.78z"/>
	<path class="st4" d="M344.98,162.61c-5.08,3.73-10.75,11.64-12.54,25.53c-1.79,13.58-0.6,29.85,3.13,46.87
		c-2.84-13.88-3.73-27.02-2.24-38.21c1.49-11.94,5.67-20.45,10.75-22.09c0.6-0.15,1.34-0.3,2.24-0.3c3.13,0,6.87,1.64,11.05,4.78
		v-18.06C352.59,159.93,348.26,160.22,344.98,162.61z"/>
	
		<radialGradient id="SVGID_3_" cx="9.121" cy="1019.4041" r="21.9251" fx="3.5232" fy="1019.5683" gradientTransform="matrix(-0.4337 0.9011 0.4965 0.2389 -184.0883 -77.9861)" gradientUnits="userSpaceOnUse">
		<stop  offset="0" style="stop-color:#F08067"/>
		<stop  offset="1" style="stop-color:#E73A1E"/>
	</radialGradient>
	<path class="st5" d="M332.44,188.29c1.79-13.88,7.46-21.94,12.54-25.53c3.43-2.54,7.76-2.69,12.39-1.34c0-1.64,0-3.43,0.15-5.08
		c-6.57-2.39-13.14-2.84-19.41-0.9c-13.43,4.18-22.39,17.91-24.93,38.96c-2.24,18.21,0.15,40.3,7.02,62.55
		c6.87,22.09,17.32,41.95,29.41,55.53c7.46,8.51,15.23,14.18,22.99,17.17c1.04,0.45,2.09,0.75,3.28,1.04c0.15,0,0.45,0.15,0.6,0.15
		c6.27,2.09,11.79,3.13,16.87,3.13c-1.94-0.15-3.88-0.3-5.82-0.75c-16.27-3.73-27.91-19.7-32.99-44.78l-0.9-5.37
		c-5.22-8.81-10-19.55-13.88-32.24c-1.64-5.22-2.99-10.6-4.03-15.67C331.69,218.14,330.65,201.87,332.44,188.29z"/>
	
		<linearGradient id="SVGID_4_" gradientUnits="userSpaceOnUse" x1="416.4832" y1="273.6995" x2="416.4832" y2="474.621" gradientTransform="matrix(1 0 0 -1 3.051759e-05 596.7244)">
		<stop  offset="0" style="stop-color:#DC0D15"/>
		<stop  offset="1" style="stop-color:#BC4995"/>
	</linearGradient>
	<path class="st6" d="M459.17,131.12c-11.05-12.09-29.71-12.99-43.29,3.28c-9.7,11.64-16.87,23.44-22.24,34.33
		c11.79-22.84,26.27-36.87,37.17-37.47c1.19,0,2.24,0,3.43,0.3c7.91,1.79,14.63,12.84,17.91,29.26c3.88,19.7,2.84,44.63-3.13,70.16
		c-4.03,17.46-9.85,32.99-16.57,45.68c-4.93,9.55-10.3,17.46-15.67,23.59l-0.3,0.3c0,0.15-0.15,0.15-0.15,0.3l-0.15,0.15l-0.6,0.6
		l-0.15,0.15l-0.15,0.15l-0.15,0.15l-0.15,0.15l-0.3,0.3l-0.15,0.15l-0.3,0.3c-0.15,0.3-0.45,0.45-0.6,0.6
		c-0.75,0.75-1.64,1.49-2.39,2.24c-7.02,6.27-13.73,9.11-19.26,7.91c-7.91-1.79-14.63-12.84-17.91-29.26
		c-3.88-19.7-2.84-44.63,3.13-70.16c0.75-3.43,1.64-6.87,2.54-10.15c-6.72,21.64-10,52.54-8.36,72.84
		c1.34,16.57,4.93,42.69,29.71,45.83c6.72,0.9,13.14-0.75,19.11-3.88c2.99-3.88,6.42-8.81,10.15-14.78v-0.15
		c0.15-0.15,0.15-0.3,0.3-0.45C448.27,273.97,469.77,218.44,459.17,131.12L459.17,131.12z"/>
</g>
<g>
	<g>
		<defs>
			<rect id="SVGID_5_" x="163.02" y="370.91" width="461.15" height="165.38"/>
		</defs>
		<clipPath id="SVGID_6_">
			<use xlink:href="#SVGID_5_"  style="overflow:visible;"/>
		</clipPath>
		<path class="st7" d="M476.3,453.18c-0.25-7.83,3.12-15.34,9.14-20.36c5.98-5.06,13.64-7.69,21.47-7.39
			c4.88-0.04,9.74,0.84,14.31,2.6v10.14c-4.09-2.51-8.83-3.71-13.63-3.47c-4.82-0.16-9.49,1.74-12.83,5.23
			c-3.33,3.55-5.12,8.28-4.96,13.14c-0.29,5.04,1.48,10,4.89,13.74c3.55,3.52,8.43,5.36,13.43,5.08c5.94,0.07,11.76-1.65,16.7-4.97
			l-4.77,11.58c-4.46,1.64-9.18,2.45-13.94,2.39c-7.74,0.34-15.33-2.21-21.29-7.16C479.03,468.51,475.91,460.97,476.3,453.18
			L476.3,453.18z M225.9,481.62l18.48-54.69h-11.52l-11.24,36.13l-12.61-36.13h-8.58l-11.93,36.04l-12.46-36.04h-13.02l15.41,43.15
			c0.53,1.81,1.27,3.55,2.2,5.19c1.35,1.84,3.21,3.27,5.32,4.14c0.93,0.42,3.08,1.14,6.42,2.21l11.56-34.66l8.01,23.67
			c0.59,1.92,1.48,3.74,2.6,5.42c1.37,1.49,3.06,2.65,4.95,3.38C222.3,480.42,224.44,481.17,225.9,481.62L225.9,481.62z
			 M253.83,473.5c-11.19-10.81-11.54-28.65-0.76-39.88l0.76-0.76c5.96-5.23,13.73-7.93,21.64-7.54c7.93-0.36,15.67,2.37,21.6,7.63
			c11.22,10.81,11.57,28.66,0.77,39.89l-0.77,0.66c-5.97,5.18-13.71,7.85-21.6,7.46C267.57,481.35,259.81,478.68,253.83,473.5
			L253.83,473.5z M258.87,453.23c-0.19,4.81,1.35,9.52,4.33,13.29c2.98,3.74,7.58,5.82,12.36,5.58c4.78,0.21,9.39-1.86,12.42-5.58
			c5.54-7.94,5.54-18.47,0-26.41c-6.56-7.51-18.23-7.51-24.78,0c-2.97,3.75-4.51,8.43-4.33,13.22V453.23z M354.6,410.29
			c9.98,0,16.7-5.51,16.7-16.7v-21.63h-8.58v21.94c0,5.89-3.03,9.41-8.01,9.41c-4.98,0-8.01-3.6-8.01-9.67v-21.68h-8.61v21.89
			c0,10.93,6.56,16.48,16.52,16.48V410.29z M364.81,426.99v52.57h31.97l3.77-9.35c-5.74,1.24-11.61,1.77-17.48,1.58
			c-2.05,0.04-4.09-0.04-6.13-0.24v-44.63L364.81,426.99z M397.95,410.42c5.18,0.11,10.21-1.74,14.08-5.21v-14.55h-8.09v11.93
			c-1.74,0.77-3.63,1.17-5.53,1.17c-3.58,0.16-7.04-1.21-9.54-3.74c-5.03-5.43-5.03-13.8,0-19.23c2.5-2.54,5.96-3.94,9.54-3.81
			c3.63-0.09,7.2,0.85,10.32,2.7v-6.54c-3.62-1.56-7.52-2.31-11.46-2.2c-5.49-0.29-10.88,1.62-14.97,5.3
			c-3.73,3.66-5.78,8.7-5.68,13.93c-0.36,5.3,1.67,10.5,5.53,14.16c4.34,3.9,9.96,6.04,15.79,5.99V410.42z M427.94,409.63
			c-3.19,0.03-6.37-0.12-9.54-0.46v-37.57c3.79-0.34,6.98-0.24,9.54-0.24c4.3-0.24,8.6,0.58,12.52,2.39c2.4,1.55,3.78,4.3,3.58,7.16
			c-0.22,2.58-1.68,4.91-3.91,6.22l-0.65,0.5c-0.21,0-0.46,0.2-0.67,0.29c1.45,0.31,2.86,0.87,4.12,1.65l0.59,0.4
			c2.06,1.56,3.37,3.93,3.6,6.5v0.88c0.22,4.49-2.52,8.59-6.75,10.09c-3.95,1.62-8.2,2.34-12.45,2.12V409.63z M426.52,386.02h2.62
			c4.32,0,7.16-1.5,7.16-4.63c0-3.5-3.22-4.65-7.53-4.65h-2.23L426.52,386.02z M426.52,404.14h3.8c6.22,0,8.77-2.39,8.77-6.42
			c0-4.03-3.65-6.36-9.07-6.36h-3.5V404.14z M325.22,479.56H313.3v-52.64c4.3-0.56,8.63-0.79,12.97-0.72
			c7.66,0,13.37,1.12,17.06,3.36c7.12,4.06,9.59,13.13,5.52,20.25c-0.29,0.5-0.61,0.98-0.96,1.46c-2.1,2.53-5.08,4.19-8.35,4.6
			l18.63,23.69H343.3l-18.08-24.04V479.56z M325.22,450.58h2.39c6.82,0,10.24-2.71,10.24-8.14c0-5.38-3.42-8.06-10.24-8.06h-2.39
			V450.58z M564.78,457.45c0,8.19-4.2,13.04-11.12,13.04s-11.14-5.01-11.14-13.4v-30.17h-11.93v30.45c0,15.19,9.14,22.92,23,22.92
			c13.86,0,23.28-7.68,23.28-23.3v-30.08h-11.93L564.78,457.45z M445.52,473.19c-5.94,4.68-14.2,7.02-24.78,7.02
			c-4.8,0.06-9.58-0.25-14.31-0.96v-52.11c4.74-0.67,9.52-0.98,14.31-0.93c10.58,0,18.85,2.32,24.78,6.98
			c6.24,4.75,9.79,12.23,9.54,20.06C455.33,461.07,451.77,468.51,445.52,473.19L445.52,473.19z M441.72,453.28
			c0.37-5.23-1.54-10.37-5.24-14.1c-4.04-3.26-9.14-4.88-14.31-4.55c-1.12,0-2.39,0-3.63,0.14v36.89c1.32,0,2.51,0.14,3.63,0.14
			c13.08,0,19.63-6.18,19.63-18.51H441.72z M468.89,394.29l14.31-22.33h-9.54l-9.06,14.55l-9.07-14.55h-9.54l14.31,22.33v14.67h8.3
			L468.89,394.29z M325.77,408.96l-13.52-16.9v16.9h-8.5v-37c3.12-0.38,6.26-0.55,9.39-0.5c4.2-0.26,8.39,0.56,12.17,2.39
			c9.16,4,7.02,17.57-2.93,18.55l13.73,16.7L325.77,408.96z M322.6,382.73c0-4.09-3.42-5.47-8.19-5.47c-0.7,0-1.38,0.05-2.08,0.12
			v11.11c0.7,0.1,1.38,0.15,2.08,0.15C319.19,388.64,322.6,386.56,322.6,382.73L322.6,382.73z M623.95,443.97
			c0.18,4.4-1.67,8.62-5.01,11.48c-3.34,2.78-7.59,4.24-11.93,4.07c-3.03,0.1-6.04-0.67-8.66-2.18v22.25h-12.11v-52.76
			c4.71-0.46,9.43-0.67,14.16-0.62c10.64,0,17.79,3.18,21.47,9.54c1.42,2.5,2.15,5.32,2.12,8.17L623.95,443.97z M611.62,443.6
			c0.16-2.68-0.98-5.28-3.07-6.97c-2.1-1.54-4.67-2.32-7.28-2.2h-2.93v19.23c0.65,0.09,1.3,0.13,1.95,0.13
			c7.59,0,11.33-3.43,11.33-10.27V443.6z M296.29,497.36l15.37,36.81h-9.38l-4.05-10.35h-13.08l-3.98,10.35h-16.96l-12.57-16.7v16.7
			h-8.45v-36.81c2.99-0.37,6.03-0.55,9.04-0.5c4.11-0.24,8.21,0.58,11.93,2.39c3.15,1.81,5.13,5.14,5.22,8.78
			c0.29,4.72-3.1,8.87-7.8,9.54l11.93,15.2l14.62-35.41H296.29z M260.51,508.29c0-4.17-3.45-5.65-7.16-5.65h-1.76v11.42h1.76
			c3.68,0,7.16-1.48,7.16-5.7V508.29z M295.84,517.83l-4.3-10.81l-4.15,10.81H295.84z M520.48,528.46
			c4.56-5.24,13.33-15.03,13.33-22.21c0-7.17-6.29-9.99-12.5-9.99c-3.57,0.01-7.08,0.83-10.3,2.39l-1.34,7.16
			c2.89-2,6.32-3.08,9.83-3.13c2.92,0,5.83,1.27,5.83,4.61c-0.06,1.45-0.48,2.87-1.22,4.12c-1.49,2.63-3.19,5.13-5.1,7.46
			c-3.99,5.38-8.34,10.49-13,15.29h28.62l2.39-6.37c-3.34,0.67-6.73,0.98-10.14,0.93c-2.1,0-4.17,0-6.27-0.21L520.48,528.46z
			 M561.46,513.22c3.19-1.06,5.28-4.11,5.11-7.47c0-6.92-6.81-9.41-12.67-9.41c-2.92,0-5.81,0.5-8.56,1.48l-1.11,6.75
			c2.56-1.23,5.36-1.87,8.19-1.89c2.69,0,5.81,0.8,5.81,4.09c0,4.26-5.09,4.26-8.18,4.26h-2.39v6.42c1.58-0.22,3.18-0.31,4.77-0.29
			c3.5,0,8.06,1.01,8.06,5.39c0,5.08-5.16,6.35-9.28,6.35c-3.43-0.01-6.84-0.49-10.14-1.42l3.08,7.02c2.26,0.47,4.57,0.71,6.89,0.71
			c7.96,0,18.21-3.12,18.21-12.78c0-5.19-2.91-7.94-7.79-9.16L561.46,513.22z M505,515.6c0,10.97-7.52,19.49-18.7,19.49
			c-11.19,0-18.75-8.52-18.75-19.49s7.5-19.47,18.75-19.47C497.54,496.14,505,504.66,505,515.6L505,515.6z M495.46,515.6
			c0-5.75-2.39-13-9.23-13c-6.84,0-9.25,7.29-9.25,13c0,5.7,2.39,12.96,9.25,12.96S495.46,521.41,495.46,515.6L495.46,515.6z
			 M448.19,528.6c4.55-5.24,13.33-15.02,13.33-22.2c0-7.18-6.32-10-12.52-10c-3.57,0.03-7.09,0.85-10.31,2.39l-1.3,7.16
			c2.88-1.99,6.3-3.08,9.8-3.12c2.91,0,5.81,1.27,5.81,4.61c-0.05,1.44-0.46,2.86-1.19,4.12c-1.49,2.62-3.19,5.12-5.1,7.46
			c-4.01,5.37-8.35,10.47-13.01,15.28h28.62l2.39-6.36c-3.33,0.66-6.73,0.98-10.14,0.93c-2.07,0-4.18,0-6.25-0.22L448.19,528.6z
			 M217.19,534.26h8.5v-16.85h10.47v-5.49h-10.47v-8.95h3.19c3.04-0.06,6.09,0.17,9.09,0.72v-6.2h-20.78V534.26z M342.15,519.95
			l-18.54-22.34h-7.94v36.65h7.39v-24.19l16.46,19.79c2.47,3.12,6.07,5.15,10.01,5.65V497.5h-7.39V519.95z M364.74,515.94
			c-0.37-6.71,4.77-12.45,11.48-12.81h0.93c3.36-0.24,6.69,0.61,9.54,2.39v-7.16c-3.18-1.29-6.6-1.91-10.02-1.81
			c-11.47,0-21.3,7.16-21.3,19.37c0,12.21,9.06,19.24,20.85,19.24c3.3,0.06,6.6-0.47,9.7-1.59l3.37-8.07
			c-3.42,2.39-7.52,3.59-11.69,3.45c-8.06,0-12.79-5.14-12.79-13.12L364.74,515.94z M402.51,528.8v-11.38h11.47v-5.49h-11.47v-8.95
			h3.91c3.04-0.11,6.09,0.12,9.08,0.72v-6.2h-21.47v36.76h22.71l2.8-6.86c-4.07,0.98-8.26,1.47-12.46,1.42c-1.51,0-3.04,0-4.6-0.15
			L402.51,528.8z M402.51,528.8"/>
	</g>
</g>
</svg>
